<svg width="61" height="57" viewBox="0 0 61 57" fill="none" xmlns="http://www.w3.org/2000/svg">
<g clip-path="url(#clip0_1_28)">
<path d="M59.1712 33.5504C60.9048 31.3072 61.4097 28.6181 60.67 25.5554C59.9523 22.5839 57.8547 20.1912 55.0593 19.1554C52.2107 18.0995 49.0802 18.5941 46.6857 20.4784C46.312 20.7725 45.0591 21.7246 44.6093 21.9132C44.3765 22.0109 44.1746 22.1547 44.0083 22.3299C34.8091 27.8882 23.0623 27.2716 14.4293 20.4782C14.0044 20.1439 13.5554 19.8541 13.0889 19.6081C13.0791 19.6025 13.0689 19.5976 13.059 19.5922C10.8898 18.4591 8.33649 18.2876 5.9644 19.1665C3.14803 20.2102 1.04008 22.5986 0.325949 25.5552C-0.366378 28.4212 0.223964 31.3419 1.80818 33.5735C1.11502 34.5424 0.603308 35.643 0.325949 36.7917C-0.418799 39.875 0.115189 42.582 1.91326 44.8375C3.69251 47.0695 6.34315 48.4275 8.34852 49.7101C15.0225 53.9785 22.7023 56.2346 30.5575 56.2346C43.6331 56.2346 51.6459 50.4269 56.6764 47.2096C60.0494 45.0527 61.6543 40.8661 60.6702 36.7917C60.3903 35.6339 59.8728 34.5249 59.1712 33.5504ZM54.8182 44.0116L50.9084 46.5122C38.3556 54.5404 22.7595 54.5404 10.2068 46.5122C6.22377 43.965 2.65134 42.4124 3.78651 37.7121C3.92495 37.1392 4.16478 36.5842 4.48741 36.0776C9.19156 38.9974 10.6151 39.9799 13.69 41.3655L14.5612 43.6507C14.8404 44.383 15.5107 44.8285 16.2191 44.8285C16.4397 44.8285 16.6639 44.7852 16.8814 44.694C17.5573 44.4104 17.9756 43.7416 18.0013 43.0246C20.0152 43.6729 22.0751 44.165 24.1649 44.4954L25.2709 47.3962C25.6367 48.356 26.6751 48.8237 27.5912 48.4395C28.5064 48.0554 28.9516 46.9655 28.5854 46.0052L28.1746 44.9279C28.9665 44.9741 29.7611 44.9984 30.5575 44.9984C32.0382 44.9984 33.5127 44.918 34.9753 44.7592L35.9806 47.3961C36.3467 48.3569 37.3857 48.8234 38.3007 48.4395C39.2161 48.0554 39.6613 46.9655 39.2951 46.0052L38.6065 44.1992C41.1475 43.6897 43.6368 42.9389 46.0447 41.9574L46.6902 43.6507C46.9694 44.383 47.6395 44.8285 48.3481 44.8285C48.5687 44.8285 48.7929 44.7852 49.0103 44.694C49.9256 44.3099 50.3708 43.22 50.0046 42.2596L49.3163 40.4544C51.6527 39.2561 55.4846 36.812 56.5018 36.0669C56.8279 36.5762 57.0699 37.1351 57.2093 37.712C57.8158 40.2221 56.8772 42.6949 54.8182 44.0116ZM50.9079 35.2752C38.9174 42.9436 23.6365 43.6566 10.186 35.2625C5.47318 32.3374 5.97727 32.6827 5.36727 32.1437C3.88349 30.752 3.26646 28.628 3.78639 26.4756C4.21291 24.71 5.43994 23.3332 7.1533 22.6984C8.38009 22.2437 9.68075 22.2462 10.847 22.6721L14.5611 32.4141C14.8403 33.1464 15.5105 33.5919 16.219 33.5919C16.4396 33.5919 16.6638 33.5486 16.8813 33.4574C17.7965 33.0732 18.2417 31.9834 17.8755 31.0231L15.9399 25.9461C17.9997 27.1311 20.1732 28.053 22.4277 28.7024L25.2707 36.1595C25.5498 36.8917 26.2201 37.3372 26.9285 37.3372C27.1491 37.3372 27.3734 37.294 27.5908 37.2027C28.506 36.8186 28.9513 35.7287 28.585 34.7684L26.6067 29.5792C27.9064 29.7537 29.2247 29.8434 30.5572 29.8434C31.5519 29.8434 32.5387 29.793 33.516 29.6955L35.9802 36.1592C36.2594 36.8915 36.9296 37.337 37.6381 37.337C37.8587 37.337 38.0829 37.2937 38.3002 37.2025C39.2156 36.8184 39.6608 35.7285 39.2946 34.7682L37.1349 29.1035C39.6574 28.5257 42.0896 27.6127 44.3896 26.3804L46.6899 32.4137C46.969 33.146 47.6393 33.5915 48.3477 33.5915C48.5684 33.5915 48.7926 33.5482 49.01 33.457C49.9253 33.0729 50.3705 31.983 50.0043 31.0226L47.5019 24.4592C47.95 24.1437 48.3923 23.8162 48.827 23.4742C50.2642 22.3434 52.1494 22.049 53.8698 22.6865C55.5618 23.3135 56.7789 24.6945 57.209 26.475C58.3442 31.1745 54.8822 32.7335 50.9079 35.2752Z" fill="#5AB963"/>
<path d="M22.6522 10.9372C24.3463 9.75222 25.3577 7.76959 25.3577 5.63347C25.3577 3.49747 24.3463 1.51472 22.6522 0.329842C21.8318 -0.243783 20.7237 -0.0114078 20.177 0.849217C19.6301 1.70984 19.8517 2.87259 20.672 3.44622C21.381 3.94209 21.7877 4.73947 21.7877 5.63347C21.7877 6.52747 21.381 7.32484 20.672 7.82084C18.9779 9.00572 17.9665 10.9883 17.9665 13.1245C17.9665 15.2605 18.9779 17.2432 20.672 18.4282C21.4926 19.0021 22.6009 18.7691 23.1472 17.9088C23.6941 17.0482 23.4725 15.8855 22.6522 15.3118C21.9432 14.816 21.5365 14.0186 21.5365 13.1245C21.5365 12.2303 21.9432 11.4331 22.6522 10.9372ZM31.577 10.9372C33.2711 9.75222 34.2825 7.76959 34.2825 5.63347C34.2825 3.49747 33.2711 1.51472 31.577 0.329842C30.7566 -0.243783 29.6486 -0.0114078 29.1018 0.849217C28.5549 1.70984 28.7765 2.87259 29.5968 3.44622C30.3058 3.94209 30.7126 4.73947 30.7126 5.63347C30.7126 6.52747 30.3058 7.32484 29.5968 7.82084C27.9027 9.00572 26.8914 10.9883 26.8914 13.1245C26.8914 15.2605 27.9027 17.2432 29.5968 18.4282C30.4174 19.0021 31.5256 18.7691 32.0721 17.9088C32.619 17.0482 32.3973 15.8855 31.577 15.3118C30.868 14.816 30.4613 14.0186 30.4613 13.1245C30.4613 12.2303 30.868 11.4331 31.577 10.9372ZM40.5017 10.9372C42.1958 9.75222 43.2072 7.76959 43.2072 5.63347C43.2072 3.49747 42.1958 1.51472 40.5017 0.329842C39.6815 -0.243783 38.5732 -0.0114078 38.0265 0.849217C37.4795 1.70984 37.7012 2.87259 38.5215 3.44622C39.2305 3.94209 39.6373 4.73947 39.6373 5.63347C39.6373 6.52747 39.2305 7.32484 38.5215 7.82084C36.8275 9.00572 35.8161 10.9883 35.8161 13.1245C35.8161 15.2605 36.8275 17.2432 38.5215 18.4282C39.3422 19.0021 40.4503 18.7691 40.9968 17.9088C41.5436 17.0482 41.322 15.8855 40.5017 15.3118C39.7927 14.816 39.386 14.0186 39.386 13.1245C39.3861 12.2303 39.7927 11.4331 40.5017 10.9372Z" fill="black"/>
</g>
<defs>
<clipPath id="clip0_1_28">
<rect width="61" height="57" fill="white"/>
</clipPath>
</defs>
</svg>
